# Blender 4.2.3 LTS
# www.blender.org
o House
v -10.000001 12.013835 4.949966
v -10.000001 0.035946 -5.052085
v 9.816945 8.009218 -1.882629
v 9.816945 4.348130 -1.882629
v -10.000001 0.035946 4.947916
v -10.000001 10.035945 -5.052085
v 9.816945 8.009218 1.778460
v -10.000001 10.035945 4.947916
v 9.816945 4.348130 1.778460
v 9.999999 0.035946 -5.052085
v -9.900001 7.178674 -4.052084
v -9.900001 7.178674 1.947916
v -9.900001 5.178675 -4.052084
v -9.900001 7.178674 -2.052084
v -9.900001 5.178675 1.947916
v 9.999999 0.035946 4.947916
v -9.900001 5.178675 -2.052084
v 9.999999 10.035945 -5.052085
v -9.900001 7.178674 3.947916
v 9.999999 10.035945 4.947916
v -9.900001 5.178675 3.947916
v -10.000001 12.013835 -5.050035
v -10.000001 1.800266 -5.052085
v -10.000001 1.800266 4.947916
v 9.999999 1.800266 -5.052085
v 9.999999 1.800266 4.947916
v -10.860643 1.800266 -5.482406
v -10.860643 0.035946 -5.482406
v -10.860643 0.035946 5.378236
v 10.860641 1.800266 5.378236
v 10.860641 0.035946 5.378236
v 10.860641 0.035946 -5.482406
v -10.860643 1.800266 5.378236
v 10.860641 1.800266 -5.482406
v -10.000001 1.806442 -0.802084
v -10.000001 1.806442 0.697916
v -10.000001 4.306442 0.697916
v -10.000001 4.306442 -0.802084
v -10.000001 7.178674 3.947916
v -10.000001 5.178675 3.947916
v -10.000001 5.178675 1.947916
v -10.000001 7.178674 1.947916
v -10.000001 5.178675 -4.052084
v -10.000001 5.178675 -2.052084
v -10.000001 7.178674 -2.052084
v -10.000001 7.178674 -4.052084
v 9.999999 8.009218 -1.882629
v 9.999999 8.009218 1.778460
v 9.999999 4.348130 -1.882629
v 9.999999 4.348130 1.778460
v -10.000001 10.035945 -5.052085
v -10.000001 10.035945 4.947916
v -10.000001 12.013835 4.949966
v -10.000001 12.013835 -5.050035
v -9.900001 10.035945 -5.052085
v -9.900001 10.035945 4.947916
v -9.900001 12.013835 4.949966
v -9.900001 12.013835 -5.050035
v 10.000494 10.040921 -5.052085
v 10.000494 10.040921 4.947916
v -9.899506 12.018810 -5.050035
v -9.899506 12.018810 4.949966
v 10.002966 10.065799 -5.052085
v 10.002966 10.065799 4.947916
v -9.897034 12.043688 -5.050035
v -9.897034 12.043688 4.949966
v -10.648151 12.037411 -5.050035
v -10.648151 12.037411 4.949966
v -10.645679 12.062288 -5.050035
v -10.645679 12.062288 4.949966
vn -0.0000 1.0000 -0.0000
vn -1.0000 -0.0006 -0.0000
vn -1.0000 -0.0000 -0.0000
vn -0.0000 -1.0000 -0.0000
vn -0.0000 -0.0000 1.0000
vn -0.0000 -0.0000 -1.0000
vn 1.0000 -0.0000 -0.0000
vn -0.0000 -0.0010 1.0000
vn -0.0000 0.0010 -1.0000
vn 0.0001 -0.0000 1.0000
vn 0.9951 -0.0987 -0.0000
vn -0.0001 -0.0000 -1.0000
vn -0.9951 0.0989 -0.0000
vn 0.0989 0.9951 -0.0000
vn 0.9951 -0.0989 -0.0000
vn 0.0248 0.9997 -0.0000
vn -0.0248 -0.9997 -0.0000
vn 0.9951 -0.0992 -0.0000
vt 0.083464 0.893164
vt 0.395182 0.581445
vt 0.395182 0.893164
vt 0.568529 0.829349
vt 0.568337 0.650144
vt 0.568529 0.782600
vt 0.412370 0.379883
vt 0.436849 0.223633
vt 0.410026 0.473242
vt 0.368880 0.471289
vt 0.220182 0.596680
vt 0.285807 0.466602
vt 0.246224 0.371289
vt 0.244141 0.464648
vt 0.013411 0.325072
vt 0.000000 0.000000
vt 0.013411 0.013411
vt 0.130339 0.591211
vt 0.455339 0.577539
vt 0.441797 0.591211
vt 0.338478 0.000000
vt 0.325067 0.013411
vt 0.338478 0.338483
vt 0.464714 0.072852
vt 0.256901 0.458008
vt 0.256901 0.072852
vt 0.372005 0.443945
vt 0.164193 0.443945
vt 0.306120 0.324805
vt 0.230078 0.153711
vt 0.372005 0.059180
vt 0.306120 0.153711
vt 0.455339 0.916211
vt 0.441797 0.902930
vt 0.000000 0.661517
vt 0.054979 1.000000
vt 0.000000 1.000000
vt 0.161849 0.841992
vt 0.106901 0.503711
vt 0.161849 0.503711
vt 0.238411 0.976367
vt 0.183464 0.637695
vt 0.238411 0.637695
vt 0.300911 0.637695
vt 0.355859 0.976367
vt 0.300911 0.976367
vt 0.130339 0.902930
vt 0.116797 0.577539
vt 0.325067 0.325072
vt 0.116797 0.916211
vt 0.000000 0.338483
vt 0.073047 0.072461
vt 0.280859 0.457617
vt 0.073047 0.457617
vt 0.057682 0.962695
vt 0.369141 0.650977
vt 0.369141 0.962695
vt 0.071228 0.661517
vt 0.072787 0.723849
vt 0.071228 0.723849
vt 0.074345 0.661517
vt 0.072787 0.661517
vt 0.079020 0.661517
vt 0.080578 0.723849
vt 0.079020 0.723849
vt 0.083694 0.661517
vt 0.082136 0.723849
vt 0.082136 0.661517
vt 0.075903 0.723849
vt 0.074345 0.723849
vt 0.077462 0.723849
vt 0.075903 0.661517
vt 0.077462 0.661517
vt 0.077462 0.723849
vt 0.079020 0.661517
vt 0.079020 0.723849
vt 0.082136 0.661517
vt 0.080578 0.723849
vt 0.080578 0.661517
vt 0.062671 0.775618
vt 0.059819 0.661517
vt 0.062671 0.661517
vt 0.065524 0.661517
vt 0.065524 0.775618
vt 0.068376 0.775618
vt 0.065524 0.661517
vt 0.068376 0.661517
vt 0.068376 0.661517
vt 0.071228 0.775618
vt 0.068376 0.775618
vt 0.955849 0.650144
vt 0.954291 0.338483
vt 0.955849 0.338483
vt 0.130078 0.541992
vt 0.191797 0.853711
vt 0.130078 0.853711
vt 0.955849 0.338483
vt 0.957407 0.650144
vt 0.955849 0.650144
vt 0.083694 0.661517
vt 0.085252 0.723160
vt 0.083694 0.723160
vt 0.086811 0.723160
vt 0.085252 0.661517
vt 0.086811 0.661517
vt 0.206641 0.847852
vt 0.414453 0.940039
vt 0.206641 0.940039
vt 0.056477 0.977683
vt 0.055133 0.661538
vt 0.056631 0.977705
vt 0.057399 0.977814
vt 0.054979 0.989268
vt 0.624190 0.650144
vt 0.624034 0.338483
vt 0.624190 0.338483
vt 0.058321 0.977683
vt 0.059665 0.661538
vt 0.059819 0.661516
vt 0.942466 0.338483
vt 0.942622 0.650144
vt 0.942466 0.650144
vt 0.905339 0.882227
vt 0.593620 0.570898
vt 0.905339 0.570898
vt 0.624034 0.650144
vt 0.623258 0.338483
vt 0.055902 0.661648
vt 0.058168 0.977705
vt 0.058897 0.661648
vt 0.957407 0.338483
vt 0.958183 0.650144
vt 0.957407 0.650144
vt 0.905339 0.559180
vt 0.559505 0.693555
vt 0.877474 0.671680
vt 0.876953 0.698633
vt 0.059050 0.989378
vt 0.057399 0.977814
vt 0.083464 0.581445
vt 0.568337 0.961805
vt 0.370964 0.377930
vt 0.345964 0.335742
vt 0.348828 0.218945
vt 0.427734 0.608008
vt 0.287891 0.373242
vt 0.229297 0.212305
vt 0.317578 0.217383
vt 0.314714 0.334180
vt 0.464714 0.458008
vt 0.164193 0.059180
vt 0.230078 0.324805
vt 0.054979 0.661517
vt 0.106901 0.841992
vt 0.183464 0.976367
vt 0.355859 0.637695
vt 0.280859 0.072461
vt 0.057682 0.650977
vt 0.080578 0.661517
vt 0.083694 0.723849
vt 0.077462 0.661517
vt 0.059819 0.775618
vt 0.065524 0.775618
vt 0.071228 0.661517
vt 0.954291 0.650144
vt 0.191797 0.541992
vt 0.957407 0.338483
vt 0.085252 0.661517
vt 0.085252 0.723160
vt 0.414453 0.847852
vt 0.054979 0.661516
vt 0.055748 0.989378
vt 0.942622 0.338483
vt 0.593620 0.882227
vt 0.623258 0.650144
vt 0.958183 0.338483
vt 0.593620 0.559180
vt 0.560026 0.666602
vt 0.059819 0.989268
s 0
f 6/1/1 20/2/1 18/3/1
f 35/4/2 24/5/2 36/6/2
f 40/7/3 24/8/3 39/9/3
f 42/10/3 6/11/3 45/12/3
f 6/11/3 43/13/3 46/14/3
f 10/15/4 31/16/4 16/17/4
f 24/18/1 30/19/1 26/20/1
f 16/17/4 29/21/4 5/22/4
f 1/23/5 54/23/5 53/23/5
f 18/24/6 23/25/6 6/26/6
f 26/27/7 25/28/7 50/29/7
f 47/30/7 20/31/7 48/32/7
f 26/20/1 34/33/1 25/34/1
f 30/35/7 32/36/7 34/37/7
f 34/38/6 28/39/6 27/40/6
f 33/41/5 31/42/5 30/43/5
f 29/44/3 27/45/3 28/46/3
f 23/47/1 33/48/1 24/18/1
f 5/22/4 28/23/4 2/49/4
f 25/34/1 27/50/1 23/47/1
f 2/49/4 32/51/4 10/15/4
f 20/52/5 24/53/5 26/54/5
f 23/55/1 26/56/1 25/57/1
f 21/58/6 39/59/6 19/60/6
f 15/61/5 42/59/5 41/62/5
f 19/63/4 42/64/4 12/65/4
f 21/66/1 41/67/1 40/68/1
f 17/61/6 45/69/6 14/70/6
f 11/71/5 43/72/5 13/73/5
f 11/74/4 45/75/4 46/76/4
f 17/77/1 43/78/1 44/79/1
f 7/80/6 50/81/6 9/82/6
f 3/80/5 49/83/5 47/84/5
f 3/85/4 48/86/4 7/87/4
f 9/88/1 49/89/1 4/90/1
f 54/91/4 57/92/4 53/93/4
f 8/23/5 53/23/5 52/23/5
f 22/23/5 51/23/5 54/23/5
f 6/23/5 52/23/5 51/23/5
f 56/94/3 58/95/3 55/96/3
f 52/97/1 55/98/1 51/99/1
f 51/100/8 58/101/8 54/102/8
f 53/103/9 56/104/9 52/105/9
f 54/106/7 52/107/7 51/108/7
f 57/109/10 60/110/10 62/111/10
f 66/112/5 68/113/5 62/111/5
f 18/114/11 60/115/11 20/116/11
f 58/117/12 59/118/12 18/119/12
f 57/120/13 61/121/13 58/122/13
f 64/123/14 65/124/14 66/125/14
f 59/126/15 64/127/15 60/115/15
f 62/111/10 64/128/10 66/112/10
f 61/129/12 63/130/12 59/118/12
f 68/131/13 69/132/13 67/133/13
f 65/124/16 70/134/16 66/125/16
f 62/135/17 67/136/17 61/137/17
f 61/129/6 69/138/6 65/139/6
f 6/1/1 8/140/1 20/2/1
f 35/4/3 23/141/3 24/5/3
f 40/7/3 41/142/3 37/143/3
f 37/143/3 36/144/3 24/8/3
f 24/8/3 8/145/3 39/9/3
f 40/7/3 37/143/3 24/8/3
f 44/146/3 43/13/3 23/147/3
f 23/147/3 35/148/3 38/149/3
f 38/149/3 37/143/3 41/142/3
f 42/10/3 39/9/3 8/145/3
f 38/149/3 41/142/3 42/10/3
f 44/146/3 23/147/3 38/149/3
f 6/11/3 46/14/3 45/12/3
f 45/12/3 44/146/3 38/149/3
f 42/10/3 8/145/3 6/11/3
f 45/12/3 38/149/3 42/10/3
f 6/11/3 23/147/3 43/13/3
f 10/15/4 32/51/4 31/16/4
f 24/18/1 33/48/1 30/19/1
f 16/17/4 31/16/4 29/21/4
f 1/23/5 22/23/5 54/23/5
f 18/24/6 25/150/6 23/25/6
f 50/29/7 48/32/7 20/31/7
f 25/28/7 18/151/7 47/30/7
f 25/28/7 47/30/7 49/152/7
f 50/29/7 20/31/7 26/27/7
f 25/28/7 49/152/7 50/29/7
f 47/30/7 18/151/7 20/31/7
f 26/20/1 30/19/1 34/33/1
f 30/35/7 31/153/7 32/36/7
f 34/38/6 32/154/6 28/39/6
f 33/41/5 29/155/5 31/42/5
f 29/44/3 33/156/3 27/45/3
f 23/47/1 27/50/1 33/48/1
f 5/22/4 29/21/4 28/23/4
f 25/34/1 34/33/1 27/50/1
f 2/49/4 28/23/4 32/51/4
f 20/52/5 8/157/5 24/53/5
f 23/55/1 24/158/1 26/56/1
f 21/58/6 40/62/6 39/59/6
f 15/61/5 12/70/5 42/59/5
f 19/63/4 39/159/4 42/64/4
f 21/66/1 15/160/1 41/67/1
f 17/61/6 44/72/6 45/69/6
f 11/71/5 46/69/5 43/72/5
f 11/74/4 14/161/4 45/75/4
f 17/77/1 13/67/1 43/78/1
f 7/80/6 48/162/6 50/81/6
f 3/80/5 4/82/5 49/83/5
f 3/85/4 47/163/4 48/86/4
f 9/88/1 50/164/1 49/89/1
f 54/91/4 58/165/4 57/92/4
f 8/23/5 1/23/5 53/23/5
f 22/23/5 6/23/5 51/23/5
f 6/23/5 8/23/5 52/23/5
f 56/94/3 57/166/3 58/95/3
f 52/97/1 56/167/1 55/98/1
f 51/100/8 55/168/8 58/101/8
f 53/103/9 57/169/9 56/104/9
f 54/106/7 53/170/7 52/107/7
f 57/109/10 20/171/10 60/110/10
f 66/112/5 70/172/5 68/113/5
f 18/114/18 59/126/18 60/115/18
f 58/117/12 61/129/12 59/118/12
f 57/120/13 62/173/13 61/121/13
f 64/123/14 63/174/14 65/124/14
f 59/126/15 63/175/15 64/127/15
f 62/111/10 60/110/10 64/128/10
f 61/129/12 65/139/12 63/130/12
f 68/131/13 70/176/13 69/132/13
f 65/124/16 69/177/16 70/134/16
f 62/135/17 68/178/17 67/136/17
f 61/129/6 67/179/6 69/138/6
