# Blender 4.3.0
# www.blender.org
o Spin
v -2.113792 2.113792 -1.000000
v -2.113792 2.113792 1.000000
v 2.113792 2.113792 -1.000000
v 2.113792 2.113792 1.000000
v -2.113792 -2.113792 -1.000000
v -2.113792 -2.113792 1.000000
v 2.113792 -2.113792 -1.000000
v 2.113792 -2.113792 1.000000
v -1.024094 25.000000 -0.484483
v -2.113791 23.910303 -1.000000
v -2.113791 23.910303 1.000000
v -1.024094 25.000000 0.484483
v 2.113793 23.910303 1.000000
v 1.024096 25.000000 0.484483
v 2.113793 23.910303 -1.000000
v 1.024096 25.000000 -0.484483
v 25.000000 1.024094 -0.484483
v 23.910303 2.113791 -1.000000
v 23.910303 2.113791 1.000000
v 25.000000 1.024094 0.484483
v 23.910303 -2.113793 1.000000
v 25.000000 -1.024096 0.484483
v 23.910303 -2.113793 -1.000000
v 25.000000 -1.024096 -0.484483
v 1.024094 -25.000000 -0.484483
v 2.113791 -23.910303 -1.000000
v 2.113791 -23.910303 1.000000
v 1.024094 -25.000000 0.484483
v -2.113793 -23.910303 1.000000
v -1.024096 -25.000000 0.484483
v -2.113793 -23.910303 -1.000000
v -1.024096 -25.000000 -0.484483
v -25.000000 -1.024094 -0.484483
v -23.910303 -2.113791 -1.000000
v -23.910303 -2.113791 1.000000
v -25.000000 -1.024094 0.484483
v -23.910303 2.113793 1.000000
v -25.000000 1.024096 0.484483
v -23.910303 2.113793 -1.000000
v -25.000000 1.024096 -0.484483
v 4.077785 2.113791 -1.000000
v 4.077786 23.910303 -1.000000
v 4.077786 23.910303 1.000000
v 4.077785 2.113791 1.000000
v 2.113792 4.077785 1.000000
v 23.910303 4.077785 1.000000
v 23.910303 4.077785 -1.000000
v 2.113792 4.077785 -1.000000
v 2.113791 -4.077785 -1.000000
v 23.910303 -4.077786 -1.000000
v 23.910303 -4.077786 1.000000
v 2.113791 -4.077785 1.000000
v 4.077785 -2.113792 1.000000
v 4.077785 -23.910303 1.000000
v 4.077785 -23.910303 -1.000000
v 4.077785 -2.113792 -1.000000
v -4.077785 -2.113791 -1.000000
v -4.077786 -23.910303 -1.000000
v -4.077786 -23.910303 1.000000
v -4.077785 -2.113791 1.000000
v -2.113792 -4.077785 1.000000
v -23.910303 -4.077785 1.000000
v -23.910303 -4.077785 -1.000000
v -2.113792 -4.077785 -1.000000
v -2.113791 4.077785 -1.000000
v -23.910303 4.077786 -1.000000
v -23.910303 4.077786 1.000000
v -2.113791 4.077785 1.000000
v -4.077785 2.113792 1.000000
v -4.077785 23.910303 1.000000
v -4.077785 23.910303 -1.000000
v -4.077785 2.113792 -1.000000
vn -0.0000 -0.0000 -1.0000
vn -0.0000 -0.0000 1.0000
vn -0.0000 1.0000 -0.0000
vn 1.0000 -0.0000 -0.0000
vn -0.0000 -1.0000 -0.0000
vn -1.0000 -0.0000 -0.0000
vn -0.7071 0.7071 -0.0000
vn -0.0000 0.4276 0.9039
vn 0.7071 0.7071 -0.0000
vn -0.0000 0.4276 -0.9039
vn 0.4276 -0.0000 0.9039
vn 0.7071 -0.7071 -0.0000
vn 0.4276 -0.0000 -0.9039
vn -0.0000 -0.4276 0.9039
vn -0.7071 -0.7071 -0.0000
vn -0.0000 -0.4276 -0.9039
vn -0.4276 -0.0000 0.9039
vn -0.4276 -0.0000 -0.9039
vt 0.206210 0.789243
vt 0.213205 0.845449
vt 0.157000 0.852444
vt 0.150004 0.796239
vt 0.220201 0.901654
vt 0.227196 0.957859
vt 0.170991 0.964855
vt 0.163995 0.908649
vt 0.325615 0.831458
vt 0.269410 0.838453
vt 0.312931 0.847748
vt 0.316320 0.874979
vt 0.289090 0.878368
vt 0.285701 0.851137
vt 0.276406 0.894658
vt 0.332611 0.887663
vt 0.332611 0.887663
vt 0.256726 0.854744
vt 0.260115 0.881974
vt 0.232885 0.885363
vt 0.229496 0.858133
vt 0.276406 0.894658
vt 0.200521 0.861739
vt 0.203910 0.888970
vt 0.176679 0.892359
vt 0.173290 0.865128
vt 0.220200 0.901654
vt 0.100795 0.859440
vt 0.144316 0.868735
vt 0.147705 0.895965
vt 0.120474 0.899354
vt 0.117085 0.872124
vt 0.107790 0.915645
vt 0.163995 0.908649
vt 0.107790 0.915645
s 0
f 3/1/1 7/2/1 5/3/1 1/4/1
f 8/5/2 4/6/2 2/7/2 6/8/2
f 1/9/1 10/9/1 15/10/1 3/10/1
f 9/11/3 12/12/3 14/13/3 16/14/3
f 4/15/2 13/15/2 11/16/2 2/17/2
f 3/10/1 18/10/1 23/2/1 7/2/1
f 17/18/4 20/19/4 22/20/4 24/21/4
f 8/5/2 21/5/2 19/22/2 4/15/2
f 7/2/1 26/2/1 31/3/1 5/3/1
f 25/23/5 28/24/5 30/25/5 32/26/5
f 6/8/2 29/8/2 27/27/2 8/5/2
f 5/3/1 34/3/1 39/28/1 1/28/1
f 33/29/6 36/30/6 38/31/6 40/32/6
f 2/33/2 37/33/2 35/34/2 6/8/2
f 12/12/7 9/11/7 10/9/7 11/17/7
f 14/13/8 12/12/8 11/16/8 13/15/8
f 16/14/9 14/13/9 13/22/9 15/10/9
f 9/11/10 16/14/10 15/10/10 10/9/10
f 20/19/9 17/18/9 18/10/9 19/15/9
f 22/20/11 20/19/11 19/22/11 21/5/11
f 24/21/12 22/20/12 21/27/12 23/2/12
f 17/18/13 24/21/13 23/2/13 18/10/13
f 28/24/12 25/23/12 26/2/12 27/5/12
f 30/25/14 28/24/14 27/27/14 29/8/14
f 32/26/15 30/25/15 29/34/15 31/3/15
f 25/23/16 32/26/16 31/3/16 26/2/16
f 36/30/15 33/29/15 34/3/15 35/8/15
f 38/31/17 36/30/17 35/34/17 37/33/17
f 40/32/7 38/31/7 37/35/7 39/28/7
f 33/29/18 40/32/18 39/28/18 34/3/18
f 41/10/4 42/10/4 43/22/4 44/15/4
f 15/10/1 42/10/1 41/10/1 3/10/1
f 13/22/3 43/22/3 42/10/3 15/10/3
f 4/15/2 44/15/2 43/22/2 13/22/2
f 3/10/5 41/10/5 44/15/5 4/15/5
f 45/15/3 46/15/3 47/10/3 48/10/3
f 19/15/2 46/15/2 45/15/2 4/15/2
f 18/10/4 47/10/4 46/15/4 19/15/4
f 3/10/1 48/10/1 47/10/1 18/10/1
f 4/15/6 45/15/6 48/10/6 3/10/6
f 49/2/5 50/2/5 51/27/5 52/5/5
f 23/2/1 50/2/1 49/2/1 7/2/1
f 21/27/4 51/27/4 50/2/4 23/2/4
f 8/5/2 52/5/2 51/27/2 21/27/2
f 7/2/6 49/2/6 52/5/6 8/5/6
f 53/5/4 54/5/4 55/2/4 56/2/4
f 27/5/2 54/5/2 53/5/2 8/5/2
f 26/2/5 55/2/5 54/5/5 27/5/5
f 7/2/1 56/2/1 55/2/1 26/2/1
f 8/5/3 53/5/3 56/2/3 7/2/3
f 57/3/6 58/3/6 59/34/6 60/8/6
f 31/3/1 58/3/1 57/3/1 5/3/1
f 29/34/5 59/34/5 58/3/5 31/3/5
f 6/8/2 60/8/2 59/34/2 29/34/2
f 5/3/3 57/3/3 60/8/3 6/8/3
f 61/8/5 62/8/5 63/3/5 64/3/5
f 35/8/2 62/8/2 61/8/2 6/8/2
f 34/3/6 63/3/6 62/8/6 35/8/6
f 5/3/1 64/3/1 63/3/1 34/3/1
f 6/8/4 61/8/4 64/3/4 5/3/4
f 65/28/3 66/28/3 67/35/3 68/33/3
f 39/28/1 66/28/1 65/28/1 1/28/1
f 37/35/6 67/35/6 66/28/6 39/28/6
f 2/33/2 68/33/2 67/35/2 37/35/2
f 1/28/4 65/28/4 68/33/4 2/33/4
f 69/17/6 70/17/6 71/9/6 72/9/6
f 11/17/2 70/17/2 69/17/2 2/17/2
f 10/9/3 71/9/3 70/17/3 11/17/3
f 1/9/1 72/9/1 71/9/1 10/9/1
f 2/17/5 69/17/5 72/9/5 1/9/5
